<svg id="Capa_1" data-name="Capa 1" xmlns="http://www.w3.org/2000/svg" viewBox="0 0 80 71.67"><defs><style>.cls-1{fill:#595959;}</style></defs><title>Mesa de trabajo 3</title><path class="cls-1" d="M24.69,27.64l-.18-.3c-.07,0-.12,0-.13,0-.27.44-.83.46-1.18.78-.05,0-.14,0-.21,0l-.51.07a1.56,1.56,0,0,1-.3,0,1.08,1.08,0,0,0-.73.08.21.21,0,0,1-.13,0,6.22,6.22,0,0,0-1.43,0,3.5,3.5,0,0,0-1.15.26.18.18,0,0,0-.07,0,4.15,4.15,0,0,0-.55.77c-.2.45-.31.94-.49,1.4a2.67,2.67,0,0,1-.35.61.75.75,0,0,0-.16.48,1,1,0,0,1-.23.74,1.37,1.37,0,0,0-.16.47c-.2.22-.41.44-.6.68-.32.4-.55.43-.9.05s-.54-.68-.81-1a.47.47,0,0,1,0-.17c0-.07,0-.17-.05-.21-.35-.27-.41-.71-.63-1.06,0,0-.07-.07-.07-.1-.05-.57-.55-.92-.67-1.45a7.29,7.29,0,0,1-.49-1.52,2.64,2.64,0,0,0-.27-.79.79.79,0,0,1-.08-.29A13.07,13.07,0,0,0,12,24.65c0-.16,0-.33,0-.49s0-.23,0-.3c-.19-.29-.09-.6-.12-.9s.07-.71,0-1.05c-.1-.51.09-1-.08-1.53a4,4,0,0,1,0-1.09V17.85s0-.06,0-.08a5,5,0,0,0-.07-1.22,1.11,1.11,0,0,0-.21-.78.43.43,0,0,1,0-.54.92.92,0,0,0,.06-.76,6.93,6.93,0,0,1-.1-.78s0-.06,0-.09L10.83,12a2.36,2.36,0,0,1-.12-.28.69.69,0,0,0-.35-.53.58.58,0,0,1-.27-.65,4.9,4.9,0,0,1,1.61.36.25.25,0,0,0,.39-.12.24.24,0,0,0-.14-.39c-.51-.15-.75-.58-1-1a4,4,0,0,0-.79-1.05s-.06-.1-.08-.15c-.23-.69-.5-1.37-.68-2.07a5.44,5.44,0,0,1-.13-1.34.49.49,0,0,1,.22-.35c.15-.12.36-.19.53-.3s.58-.43.89-.64a4.42,4.42,0,0,1,.6-.34c.56-.24,1.12-.48,1.69-.69a9,9,0,0,1,.9-.21c.42-.1.83-.23,1.26-.3a2,2,0,0,1,.87,0,5.18,5.18,0,0,0,1.3.06,1.31,1.31,0,0,1,.39,0,.94.94,0,0,0,.68.08c.06,0,.17.07.27.1.27.08.5.3.83.16.09,0,.25,0,.37.09L21.12,3a1.67,1.67,0,0,1,.23.12c.31.16.53.47.92.48.05,0,.09.1.13.15s.09.13.15.15a2.12,2.12,0,0,1,1.09.74.88.88,0,0,0,.23.14c.06,0,.15,0,.19.09.33.45.85.7,1.16,1.16s.46.64.69,1a.81.81,0,0,0,.27.28.85.85,0,0,1,.46.56,1.7,1.7,0,0,0,.44.64,3.55,3.55,0,0,1,.58,1c.24.44.45.91.67,1.37a1.86,1.86,0,0,1,.1.2c.12.36.12.36.38.56a1.11,1.11,0,0,0,.26.93c.07.06.06.19.09.29a.92.92,0,0,0,.11.33,2,2,0,0,1,.2.56c.18.47.24,1,.68,1.34.1.07.1.26.16.43a.77.77,0,0,1,.43.58,4,4,0,0,0,.62,1.09c.1.17.24.3.34.46s.21.39.46.45c.06,0,.11.13.16.2a3,3,0,0,0,.76.9c.3.25.54.55.82.82a3,3,0,0,0,1,.76.28.28,0,0,1,.12.12,1.26,1.26,0,0,0,.81.55.67.67,0,0,1,.36.41.6.6,0,0,0,.45.42,1.21,1.21,0,0,1,.76.49.94.94,0,0,0,.35.26.73.73,0,0,1,.48.54c.39-.07.61.17.84.4a7.27,7.27,0,0,0,.57.54s.08.07.11.06c.33-.1.39.2.58.34a4.46,4.46,0,0,0,1.15.9,5.5,5.5,0,0,1,1.19.82c.21.16.21.17.54.14a.6.6,0,0,0,.48.48.48.48,0,0,1,.19.16s.07.13.12.18c.48.45,1,.89,1.44,1.35s.78.74,1.17,1.11c0,0,.06.07.1.09a4.8,4.8,0,0,1,1.09,1.29,5.38,5.38,0,0,0,.7.73.55.55,0,0,1,.21.4.8.8,0,0,0,.18.43,6.33,6.33,0,0,1,1,1.32,5.55,5.55,0,0,0,1.29,1.64c.06,0,.14.09.16.15A6.09,6.09,0,0,0,52,37.27c.06.09.08.22.16.26.56.33.7,1,1.06,1.43.16.21.36.38.53.58a2.3,2.3,0,0,1,.33.44A3.24,3.24,0,0,0,55,41.15c.17.13.25.39.39.58l.62.84c.27.37.56.72.82,1.09.42.58.83,1.17,1.24,1.75l1.37,1.93c.16.22.35.42.52.63l.09,0L59.74,47c.2-.14.31,0,.42.11.27.28.54.58.82.86a3.25,3.25,0,0,0,1.5.87.69.69,0,0,1,.17,0,12.63,12.63,0,0,0,1.12.66,7,7,0,0,1,.95.77s.1.09.15.09c.61.08.93.58,1.36.92,0,0,.11.12.17.13.57,0,.87.52,1.3.77l.46.25a.88.88,0,0,1,.2.09l.87.71s.08.1.13.12a6,6,0,0,1,1.31.93s.09.09.14.1c.47.09.71.5,1.08.74s.72.54,1.08.81l1,.7.37.24c.06,0,.15,0,.19.1a4.3,4.3,0,0,0,1.26,1.07c.13.08.27.17.39.26a5.37,5.37,0,0,1,.44.37c.51.53,1,1.1,1.52,1.58a2.13,2.13,0,0,1,.72,1.36,4.74,4.74,0,0,0,.15.5.79.79,0,0,1-.14.76,3.41,3.41,0,0,1-1.15-.39,4.87,4.87,0,0,0-.88-.38,3.43,3.43,0,0,1-1.24-.88c0-.05-.08-.14-.13-.16a4.47,4.47,0,0,1-1.75-1.29c-.61-.54-1.19-1.12-1.83-1.64a6.09,6.09,0,0,1-1.1-.93,1.71,1.71,0,0,0-.45-.28c-.08,0-.21-.08-.26-.15-.27-.44-.75-.53-1.15-.77l-.95-.56c-.25-.15-.6-.13-.75-.45-.36.06-.6-.21-.87-.35s-.51-.33-.81-.52c-.21.18-.46.07-.72-.09s-.47-.22-.71-.35a1.71,1.71,0,0,1-.27-.2l-.34-.25-.09.06c.05.13.09.26.14.38.25.69.52,1.37.74,2.07a.8.8,0,0,1-.79,1.08A3,3,0,0,1,62,56.53c-.32-.17-.68-.25-1-.42a12.13,12.13,0,0,1-1.6-.93c-.36-.25-.77-.4-1.13-.65-.07-.05-.16-.07-.23-.12-.37-.28-.75-.56-1.11-.85a3.4,3.4,0,0,0-.81-.52,3.91,3.91,0,0,1-.86-.6A15.23,15.23,0,0,0,53.35,51c-.3-.2-.54-.48-.83-.7-.47-.37-1-.73-1.43-1.08s-.9-.65-1.35-1c-.2-.15-.39-.31-.58-.47s-.08-.08-.13-.11a14.81,14.81,0,0,1-1.71-1.23c-.5-.31-1-.68-1.46-1-.16-.1-.3-.24-.46-.34a6.37,6.37,0,0,0-.55-.35c-.06,0-.17,0-.2-.09-.24-.36-.7-.4-1-.69a2.2,2.2,0,0,0-.45-.26c-.52-.26-1.06-.5-1.57-.78s-1.25-.69-1.86-1.08-1.07-.76-1.6-1.14-.83-.6-1.26-.88c-.06,0-.17,0-.24-.08s-.24-.1-.28-.19a2.79,2.79,0,0,0-1-1c-.39-.3-.73-.68-1.11-1s-.73-.52-1.08-.79a1.86,1.86,0,0,1-.38-.36,3.72,3.72,0,0,0-1-1.07c-.3-.22-.52-.56-.8-.81a9.29,9.29,0,0,1-.83-.83c-.11-.12-.33-.13-.53-.21l0-.42a.59.59,0,0,1-.61-.5,1.86,1.86,0,0,0-.68-.84c-.07,0-.18-.09-.21-.16a4.44,4.44,0,0,0-1-1.19c-.35-.4-.65-.85-1-1.28,0,0,0-.07,0-.08-.5-.25-.55-.82-.86-1.2C25.17,27.77,24.94,27.75,24.69,27.64ZM12.3,10.91c.31.21.31.21.48,0Zm2.53.37a.31.31,0,0,0,0-.08l-.06,0a.24.24,0,0,0,0,.08Z"/><path class="cls-1" d="M17.76,65.43a1,1,0,0,1,1,0,26,26,0,0,0,2.77.84c.62.15,1.24.35,1.86.52.17,0,.33.1.49,0s.29,0,.4,0a.38.38,0,0,0,.52,0l.08,0a3,3,0,0,1,2.06-.39,4.54,4.54,0,0,0,1.68-.15,2,2,0,0,0,1.1-.58,2.89,2.89,0,0,0,.85-1.58,3.26,3.26,0,0,1,.6-1.58.85.85,0,0,0,.09-.24c.13-.39.24-.78.39-1.17a1.94,1.94,0,0,1,.27-.35c-.17-.15-.31,0-.4.08a6.28,6.28,0,0,1-2.11,1.54,10.48,10.48,0,0,1-1.71.78,4.69,4.69,0,0,1-1.7.39,2.16,2.16,0,0,0-.65.11l-1,.2-.22,0c-.57,0-1.14,0-1.71-.11s-1-.23-1.45-.35c-.45-.47-1.16-.66-1.46-1.3-.05-.08-.15-.14-.21-.22s-.16-.19-.14-.27.18-.22.34-.2a6.69,6.69,0,0,1,.78.14l2.08.53c.31.08.63.15.94.24a4.89,4.89,0,0,0,2.05.06c.64-.1,1.28-.26,1.91-.41a1.33,1.33,0,0,0,.3-.18c.1-.06.22-.17.31-.15.36.07.59-.18.86-.32a2.71,2.71,0,0,1,.52-.24A5.73,5.73,0,0,0,30.89,60c.06,0,.1-.11.16-.15a3.15,3.15,0,0,0,1.2-1.47.45.45,0,0,1,.1-.14s0,0,.1-.05a.49.49,0,0,1,.2.59c-.07.25-.16.48-.23.72a1.35,1.35,0,0,0,0,.28l.08,0a7.26,7.26,0,0,0,.59-.78,1.47,1.47,0,0,1,.65-.63,1.26,1.26,0,0,0,.36-.24c.31-.31.6-.64.9-1,0,0,0,0,0-.06a4.6,4.6,0,0,1,.71-1,1.52,1.52,0,0,0,.19-.53,4.54,4.54,0,0,0,.19-1.37,2.67,2.67,0,0,1,0-.4.68.68,0,0,1,.83-.72c.25,0,.53-.07.76.13a.25.25,0,0,0,.17,0,3.91,3.91,0,0,1,1.44.14c.7.12.9.55.86,1.2a3.27,3.27,0,0,1-.86,2c-.08.1-.15.21-.24.31a3.26,3.26,0,0,1-.45.46c-.32.24-.64.46-1,.68a2.52,2.52,0,0,1-.47.22,2,2,0,0,0-1.07,1,.43.43,0,0,0,.1.63,1.83,1.83,0,0,0,.36.32,1.64,1.64,0,0,1,.8,1.55c0,.12,0,.24,0,.36a.92.92,0,0,1-.68,1.09l-.36.15a1.64,1.64,0,0,1-2.12-.85,4.06,4.06,0,0,1-.26-.79l-.09-.21a2.43,2.43,0,0,0-.42.32c-.46.59-.92,1.18-1.35,1.79a10.89,10.89,0,0,0-.66,1.09,1.45,1.45,0,0,0-.17,1,.64.64,0,0,0,.27.43.44.44,0,0,0,.45.07c.09,0,.2,0,.3,0a7.16,7.16,0,0,1,.92,0c.45,0,.89-.06,1.33-.05a6.7,6.7,0,0,1,1.39.22,4.73,4.73,0,0,1,2,1c.29.22.22.47-.09.68a2.38,2.38,0,0,1-1.2.19l-.6,0-.09,0-1.83,0s-.1,0-.13,0c-.52.27-1.12.09-1.65.37a5.31,5.31,0,0,1-1.45.35c-.44.09-.89.14-1.34.21s-.7,0-1,.18c-.05,0-.14,0-.22,0h-.87l-1.79-.06a1.43,1.43,0,0,0-.74,0c-.09.05-.23,0-.35,0a1.93,1.93,0,0,0-.48,0,5,5,0,0,1-2.16-.3,4.46,4.46,0,0,0-1.78-.22,1,1,0,0,1-1-.77c-.06-.39-.1-.79-.14-1.18a1,1,0,0,0-.57-.92A6,6,0,0,1,17.76,65.43Z"/><path class="cls-1" d="M1.26,5.27C1.88,5,2.44,5.08,3,4.88a3.5,3.5,0,0,1,1.17,0l.79.06a9,9,0,0,1,1.56.15c.41.1.83.16,1.24.22s.49.32.61.58a1.94,1.94,0,0,1,.13,1.61s0,.07,0,.09c.21.39-.11.72-.15,1.08a1.15,1.15,0,0,1-.74,1,.65.65,0,0,1-.46,0c-.51-.12-1-.23-1.55-.3a4.29,4.29,0,0,1-2.09-.85.66.66,0,0,0-.24-.11,2.08,2.08,0,0,1-1-.53,5.16,5.16,0,0,0-.61-.43.91.91,0,0,1-.45-.76.58.58,0,0,0,0-.3A.9.9,0,0,1,1.26,5.27Z"/><path class="cls-1" d="M12.3,10.91l.48,0C12.61,11.12,12.61,11.12,12.3,10.91Z"/><path class="cls-1" d="M14.83,11.28l-.06,0a.24.24,0,0,1,0-.08l.06,0A.31.31,0,0,1,14.83,11.28Z"/></svg>