<svg id="Capa_2" data-name="Capa 2" xmlns="http://www.w3.org/2000/svg" viewBox="0 0 481.07 423.29"><defs><style>.cls-1,.cls-2,.cls-3{fill:#cc3;}.cls-2{stroke:#cc3;stroke-miterlimit:10;stroke-width:1.53px;}.cls-3{font-size:36px;font-family:CopperplateGothic-Light, Copperplate Gothic Light;}.cls-4{letter-spacing:-0.05em;}.cls-5{letter-spacing:0em;}.cls-6{letter-spacing:0em;}.cls-7{letter-spacing:0.02em;}</style></defs><title>logoCompleto</title><path class="cls-1" d="M199.47,87.2l-.58-.92c-.21,0-.35,0-.38,0-.85,1.36-2.55,1.44-3.65,2.42-.13.13-.42.08-.64.11l-1.56.23a3.65,3.65,0,0,1-.93,0,3.34,3.34,0,0,0-2.24.25.61.61,0,0,1-.38.1c-1.48-.43-2.93.21-4.39.11a10.52,10.52,0,0,0-3.53.83.46.46,0,0,0-.23.12,13.56,13.56,0,0,0-1.67,2.37c-.61,1.39-1,2.89-1.5,4.31a8.92,8.92,0,0,1-1.08,1.86,2.27,2.27,0,0,0-.49,1.49,3.08,3.08,0,0,1-.71,2.26,4.39,4.39,0,0,0-.5,1.44c-.6.68-1.26,1.36-1.84,2.09-1,1.23-1.68,1.33-2.75.16-.9-1-1.67-2.1-2.48-3.17a1.38,1.38,0,0,1-.15-.51c0-.22,0-.54-.13-.64-1.09-.83-1.29-2.18-1.94-3.26-.07-.11-.22-.21-.23-.32-.15-1.74-1.69-2.82-2.05-4.45s-1.48-2.93-1.52-4.67a8.81,8.81,0,0,0-.8-2.42,2.51,2.51,0,0,1-.28-.88,39.68,39.68,0,0,0-.48-8.15,14.75,14.75,0,0,1,0-1.49c0-.31.09-.7-.06-.92-.57-.89-.25-1.86-.35-2.78s.2-2.18,0-3.22c-.28-1.56.3-3.1-.22-4.69a11.3,11.3,0,0,1,0-3.34c0-1.47,0-2.95,0-4.42,0-.09-.06-.19,0-.27.31-1.26-.21-2.48-.23-3.72a3.32,3.32,0,0,0-.65-2.4,1.38,1.38,0,0,1,0-1.66,3,3,0,0,0,.19-2.35,23.1,23.1,0,0,1-.33-2.38,1.09,1.09,0,0,0,0-.26q-.82-2.48-1.67-4.95a5.92,5.92,0,0,1-.36-.87,2.26,2.26,0,0,0-1.08-1.64,1.73,1.73,0,0,1-.82-2c1.67.29,3.39.24,4.92,1.09a.78.78,0,0,0,1.22-.36.73.73,0,0,0-.43-1.19c-1.58-.48-2.3-1.78-3.19-3s-1.28-2.39-2.45-3.19c-.13-.09-.17-.31-.23-.48-.72-2.11-1.54-4.19-2.11-6.34a18.31,18.31,0,0,1-.39-4.13,1.63,1.63,0,0,1,.67-1.07c.49-.38,1.11-.58,1.63-.93.92-.62,1.8-1.32,2.73-1.94a11.39,11.39,0,0,1,1.85-1.07c1.72-.74,3.45-1.47,5.2-2.11a25,25,0,0,1,2.75-.65c1.29-.3,2.57-.7,3.87-.91a6.17,6.17,0,0,1,2.67,0,15,15,0,0,0,4,.18,4.25,4.25,0,0,1,1.18.16,3,3,0,0,0,2.09.26c.21-.08.55.2.83.29.83.25,1.55.92,2.55.51.29-.12.77.12,1.13.26,1.13.43,2.25.89,3.36,1.34.25.1.48.25.72.37.93.49,1.62,1.44,2.81,1.48.14,0,.27.31.42.46s.27.41.44.46a6.65,6.65,0,0,1,3.36,2.29,2.12,2.12,0,0,0,.69.4c.2.11.47.15.59.31,1,1.36,2.61,2.13,3.56,3.55.68,1,1.4,2,2.12,3a2.56,2.56,0,0,0,.84.86,2.72,2.72,0,0,1,1.42,1.7,4.84,4.84,0,0,0,1.34,2c.91.85,1.2,2.07,1.77,3.12.74,1.38,1.38,2.83,2.07,4.24a4.8,4.8,0,0,1,.3.6c.37,1.1.37,1.11,1.17,1.73a3.32,3.32,0,0,0,.81,2.84c.19.18.17.58.26.88a3.07,3.07,0,0,0,.32,1,6.51,6.51,0,0,1,.63,1.74c.56,1.43.73,3.07,2.1,4.12.28.22.29.79.46,1.3A2.34,2.34,0,0,1,218,51.61a11.7,11.7,0,0,0,1.9,3.34c.31.5.72.92,1.05,1.4s.63,1.19,1.39,1.4c.2,0,.36.37.49.59a9.83,9.83,0,0,0,2.33,2.77c.92.75,1.68,1.7,2.54,2.53a9.3,9.3,0,0,0,3,2.32,1,1,0,0,1,.39.36A3.89,3.89,0,0,0,233.56,68a2,2,0,0,1,1.11,1.25,1.84,1.84,0,0,0,1.39,1.29,3.78,3.78,0,0,1,2.33,1.5,2.68,2.68,0,0,0,1.08.8,2.25,2.25,0,0,1,1.45,1.66c1.2-.21,1.88.53,2.59,1.23s1.15,1.12,1.74,1.67c.09.08.25.19.34.16,1-.3,1.22.61,1.78,1.06,1.16.93,2,2.16,3.55,2.75a17,17,0,0,1,3.64,2.52c.66.5.64.53,1.67.44a1.86,1.86,0,0,0,1.46,1.48,1.42,1.42,0,0,1,.59.46c.15.17.21.41.37.56,1.47,1.39,3,2.76,4.43,4.14l3.59,3.43a2.54,2.54,0,0,0,.29.28c1.53,1,2.3,2.59,3.36,4a16.17,16.17,0,0,0,2.15,2.23,1.64,1.64,0,0,1,.64,1.24,2.26,2.26,0,0,0,.56,1.31,20.22,20.22,0,0,1,3,4,18,18,0,0,0,3.95,5.06c.18.14.43.27.49.46.44,1.46,1.56,2.5,2.3,3.78.16.27.24.66.48.8,1.72,1,2.16,2.93,3.27,4.37.48.63,1.08,1.17,1.6,1.78a7.49,7.49,0,0,1,1,1.36,9.33,9.33,0,0,0,2.57,3.59,8.2,8.2,0,0,1,1.2,1.77c.62.88,1.26,1.74,1.91,2.6.83,1.11,1.7,2.21,2.51,3.34,1.29,1.78,2.55,3.57,3.82,5.36,1.39,2,2.77,4,4.19,5.94.49.68,1.07,1.29,1.61,1.93l.27-.12c-.28-.94-.56-1.88-.85-2.83.64-.43,1,0,1.31.33.84.88,1.65,1.78,2.51,2.64a10,10,0,0,0,4.62,2.69,1.66,1.66,0,0,1,.52.15c1.09.76,2.27,1.37,3.43,2a22.35,22.35,0,0,1,2.92,2.36c.14.11.29.27.45.28,1.88.23,2.86,1.77,4.18,2.81.17.14.34.39.53.4,1.73.13,2.66,1.59,4,2.38.45.27.93.5,1.4.75a3.05,3.05,0,0,1,.61.27c.9.72,1.78,1.46,2.67,2.19.14.11.25.3.4.35,1.63.57,2.65,2,4,2.88.15.1.28.27.44.3,1.43.27,2.18,1.54,3.3,2.26s2.23,1.67,3.34,2.5,1.94,1.43,2.91,2.14c.37.26.75.51,1.13.75.19.12.46.15.59.32a14,14,0,0,0,3.86,3.28,13.9,13.9,0,0,1,1.2.8,10.4,10.4,0,0,1,1.34,1.13c1.57,1.61,3,3.38,4.69,4.83a6.75,6.75,0,0,1,2.19,4.18c.1.53.31,1,.46,1.55a2.35,2.35,0,0,1-.42,2.33,11,11,0,0,1-3.54-1.2,15.12,15.12,0,0,0-2.7-1.18,10.12,10.12,0,0,1-3.81-2.68c-.15-.15-.24-.45-.4-.49-2.33-.6-3.68-2.5-5.35-4-1.89-1.67-3.68-3.44-5.63-5a19.56,19.56,0,0,1-3.39-2.85,5,5,0,0,0-1.36-.87c-.27-.16-.67-.23-.81-.47-.81-1.34-2.31-1.63-3.53-2.35-1-.58-1.95-1.12-2.92-1.71-.77-.46-1.84-.42-2.31-1.38-1.1.16-1.82-.65-2.66-1.1s-1.56-1-2.48-1.59c-.64.55-1.41.22-2.21-.27s-1.46-.69-2.17-1.06a7.18,7.18,0,0,1-.86-.62l-1-.77-.28.18.42,1.17c.77,2.11,1.6,4.21,2.29,6.34a2.47,2.47,0,0,1-2.44,3.33,9.08,9.08,0,0,1-4.37-1.09c-1-.51-2.11-.75-3.1-1.27a41,41,0,0,1-4.88-2.86c-1.11-.79-2.37-1.24-3.47-2-.22-.15-.51-.2-.72-.36-1.15-.86-2.3-1.72-3.41-2.62a11.41,11.41,0,0,0-2.47-1.61,10.85,10.85,0,0,1-2.64-1.83,52.5,52.5,0,0,0-6-4.42c-.93-.61-1.68-1.47-2.56-2.16-1.44-1.13-2.91-2.23-4.38-3.31s-2.78-2-4.16-3c-.61-.45-1.18-.95-1.78-1.43a2.25,2.25,0,0,0-.41-.34c-2-.94-3.44-2.62-5.25-3.77-1.51-1-2.9-2.09-4.46-3-.5-.28-.92-.71-1.41-1s-1.13-.72-1.7-1.07c-.19-.11-.51-.11-.61-.27-.74-1.12-2.15-1.24-3.07-2.11a5.83,5.83,0,0,0-1.4-.81c-1.59-.8-3.23-1.54-4.8-2.39-1.93-1.05-3.86-2.12-5.71-3.31-1.7-1.09-3.28-2.35-4.93-3.52-1.27-.91-2.55-1.82-3.85-2.7-.2-.14-.53-.11-.76-.23s-.73-.32-.85-.6a8.48,8.48,0,0,0-3-3c-1.21-.91-2.23-2.08-3.41-3s-2.23-1.62-3.33-2.45a4.59,4.59,0,0,1-1.14-1.1,12.17,12.17,0,0,0-3.15-3.29,31.86,31.86,0,0,1-2.46-2.47,36,36,0,0,1-2.55-2.54c-.33-.36-1-.42-1.61-.65l-.08-1.29a1.79,1.79,0,0,1-1.88-1.53,5.67,5.67,0,0,0-2.11-2.58c-.21-.17-.53-.29-.62-.5-.66-1.56-2.05-2.47-3.12-3.66s-2-2.61-3-3.93c0-.07,0-.22-.09-.25-1.55-.76-1.7-2.51-2.65-3.67C200.92,87.62,200.23,87.53,199.47,87.2ZM161.41,35.85c.94.62.94.62,1.48-.08ZM169.19,37a.91.91,0,0,0-.07-.25.92.92,0,0,0-.2,0A1.69,1.69,0,0,0,169,37S169.13,37,169.19,37Z" transform="translate(-7.36 -8.28)"/><path class="cls-1" d="M178.18,203.24a3.19,3.19,0,0,1,3-.05,83.42,83.42,0,0,0,8.5,2.61c1.92.45,3.81,1,5.72,1.57.52.15,1,.31,1.51-.16s.87-.11,1.21.19a1.21,1.21,0,0,0,1.61.07c.07-.05.17-.06.24-.11a9,9,0,0,1,6.34-1.2,14.56,14.56,0,0,0,5.14-.46,6.18,6.18,0,0,0,3.39-1.78,9,9,0,0,0,2.6-4.85,10.07,10.07,0,0,1,1.85-4.87,2.42,2.42,0,0,0,.28-.74c.39-1.19.74-2.4,1.19-3.57a5.12,5.12,0,0,1,.83-1.1c-.53-.44-1-.12-1.24.25-1.71,2.19-4.09,3.48-6.47,4.73a30,30,0,0,1-5.25,2.41c-1.69.51-3.35,1.3-5.22,1.18a8.14,8.14,0,0,0-2,.34l-3.05.62a2.46,2.46,0,0,1-.67.06c-1.75-.09-3.52-.08-5.25-.33A40.6,40.6,0,0,1,188,197c-1.39-1.44-3.55-2-4.5-4-.13-.26-.44-.44-.63-.69s-.49-.59-.45-.84c.09-.52.58-.66,1.06-.6a21.91,21.91,0,0,1,2.4.42c2.13.53,4.25,1.1,6.38,1.65,1,.24,1.92.46,2.87.72a15,15,0,0,0,6.32.19c2-.31,3.91-.8,5.86-1.26a4,4,0,0,0,.92-.55c.31-.18.66-.52.94-.46,1.11.2,1.81-.57,2.66-1a9.89,9.89,0,0,1,1.59-.73c2-.56,3.37-2.16,5-3.28.18-.12.28-.36.47-.48a9.63,9.63,0,0,0,3.7-4.49,2.16,2.16,0,0,1,.29-.45c0-.06.15-.08.32-.16a1.52,1.52,0,0,1,.6,1.84c-.19.74-.47,1.46-.69,2.2a5.93,5.93,0,0,0-.14.86l.25.14a24.3,24.3,0,0,0,1.83-2.38,4.39,4.39,0,0,1,2-2,3.8,3.8,0,0,0,1.12-.73c.94-.95,1.83-2,2.74-2.94.06-.06.15-.12.18-.2.42-1.23,1.47-2,2.17-3a4.8,4.8,0,0,0,.59-1.64,14.67,14.67,0,0,0,.58-4.22,9.93,9.93,0,0,1,0-1.22,2.09,2.09,0,0,1,2.56-2.2c.77.06,1.63-.22,2.33.38a.71.71,0,0,0,.52.08,11.94,11.94,0,0,1,4.41.41c2.15.38,2.77,1.71,2.67,3.7a10.18,10.18,0,0,1-2.66,6.07c-.26.31-.47.66-.74,1a11,11,0,0,1-1.39,1.42c-1,.73-2,1.41-3,2.07a9.34,9.34,0,0,1-1.46.7,6.16,6.16,0,0,0-3.28,3c-.44.91-.4,1.19.31,1.92a5.2,5.2,0,0,0,1.09,1,5,5,0,0,1,2.47,4.76c0,.36,0,.72,0,1.08a2.86,2.86,0,0,1-2.09,3.35,12,12,0,0,1-1.12.46,5,5,0,0,1-6.51-2.6,15,15,0,0,1-.81-2.42c-.06-.16-.12-.33-.25-.66a7.14,7.14,0,0,0-1.3,1c-1.42,1.8-2.82,3.62-4.15,5.48-.75,1.06-1.37,2.22-2,3.35a4.47,4.47,0,0,0-.51,3,1.83,1.83,0,0,0,.82,1.33,1.31,1.31,0,0,0,1.38.21c.26-.11.61,0,.93,0a18.82,18.82,0,0,1,2.8-.13,39.57,39.57,0,0,0,4.1-.17,23.05,23.05,0,0,1,4.25.67,15,15,0,0,1,6.19,3.2c.87.7.66,1.47-.29,2.11-1.16.77-2.44.47-3.67.57-.62.06-1.23.09-1.85.14a2.56,2.56,0,0,1-.27.05l-5.64-.1c-.13,0-.29-.11-.39-.06-1.58.82-3.42.29-5.07,1.13a16.53,16.53,0,0,1-4.43,1.09c-1.36.27-2.74.42-4.11.65-1.05.17-2.17-.1-3.14.54-.16.1-.44,0-.67,0l-2.27,0c-.14,0-.27,0-.41,0l-5.51-.18a4.35,4.35,0,0,0-2.26.13c-.28.14-.7,0-1.06,0a6.77,6.77,0,0,0-1.48-.07c-2.32.38-4.48-.31-6.63-.93a13.54,13.54,0,0,0-5.47-.67,3.18,3.18,0,0,1-3-2.37c-.19-1.19-.32-2.4-.43-3.61a3.25,3.25,0,0,0-1.75-2.84A15.69,15.69,0,0,1,178.18,203.24Z" transform="translate(-7.36 -8.28)"/><path class="cls-1" d="M127.5,18.53c1.92-.84,3.65-.6,5.29-1.2a10.78,10.78,0,0,1,3.6-.12c.81,0,1.62.11,2.42.17a29.23,29.23,0,0,1,4.79.46,38.42,38.42,0,0,0,3.83.69c1.07.15,1.47,1,1.85,1.79a6,6,0,0,1,.4,4.94c0,.08-.09.2-.06.25.64,1.21-.34,2.22-.45,3.34a3.49,3.49,0,0,1-2.27,3,2.06,2.06,0,0,1-1.41.12,45.57,45.57,0,0,0-4.77-.91,13.29,13.29,0,0,1-6.43-2.6,2,2,0,0,0-.72-.37,6.3,6.3,0,0,1-3-1.62,18.3,18.3,0,0,0-1.86-1.33,2.72,2.72,0,0,1-1.39-2.33,1.65,1.65,0,0,0-.13-.92A2.75,2.75,0,0,1,127.5,18.53Z" transform="translate(-7.36 -8.28)"/><path class="cls-1" d="M161.41,35.85l1.48-.08C162.35,36.47,162.35,36.47,161.41,35.85Z" transform="translate(-7.36 -8.28)"/><path class="cls-1" d="M169.19,37c-.06,0-.18.06-.19,0a1.69,1.69,0,0,1-.08-.24.92.92,0,0,1,.2,0A.91.91,0,0,1,169.19,37Z" transform="translate(-7.36 -8.28)"/><path class="cls-2" d="M35.93,376V325.32a3.91,3.91,0,0,0-.42-2A3,3,0,0,0,34,322.17v-1.4H56q7.5,0,11.49,3,5,3.72,7.66,11.47a48,48,0,0,1,2.29,15.41,45.52,45.52,0,0,1-3.09,17.6q-2.79,6.57-7.06,9.43T56,380.52H34v-1.4A3,3,0,0,0,35.51,378,3.93,3.93,0,0,0,35.93,376Zm4.82-1.14h15.1q6.65,0,9.87-2.93,3.8-3.51,5.58-10.73a45.16,45.16,0,0,0,1.16-10.55q0-10.41-3.71-17.25a12.74,12.74,0,0,0-5-5.34,16.83,16.83,0,0,0-7.91-1.57H40.75Z" transform="translate(-7.36 -8.28)"/><path class="cls-2" d="M92.41,352.64v22.19h26.81a2.42,2.42,0,0,0,1.82-.57,4.39,4.39,0,0,0,.81-2.23h1v11.29h-1a4.55,4.55,0,0,0-.84-2.23,2.42,2.42,0,0,0-1.82-.57H85.64v-1.4a2.71,2.71,0,0,0,1.57-1.18,6.06,6.06,0,0,0,.39-2.58V325.93a6,6,0,0,0-.4-2.58,2.78,2.78,0,0,0-1.56-1.18v-1.4h33.18a2.42,2.42,0,0,0,1.81-.56,4.78,4.78,0,0,0,.83-2.24h1v11.29h-1a4.47,4.47,0,0,0-.82-2.22,2.36,2.36,0,0,0-1.82-.58H92.41v20.48h17.31a2.4,2.4,0,0,0,1.82-.56,4.52,4.52,0,0,0,.82-2.24h1v11.3h-1a4.52,4.52,0,0,0-.82-2.24,2.45,2.45,0,0,0-1.82-.56Z" transform="translate(-7.36 -8.28)"/><path class="cls-2" d="M137.57,374.83h26.72a2.45,2.45,0,0,0,1.83-.57,4.59,4.59,0,0,0,.81-2.23h1v11.29h-1a4.59,4.59,0,0,0-.81-2.23,2.45,2.45,0,0,0-1.83-.57H130.8v-1.4a2.74,2.74,0,0,0,1.58-1.18,6.26,6.26,0,0,0,.38-2.58V325.93a5.88,5.88,0,0,0-.4-2.58,2.71,2.71,0,0,0-1.56-1.18v-1.4h8.73v1.4a2.78,2.78,0,0,0-1.56,1.18,6,6,0,0,0-.4,2.58Z" transform="translate(-7.36 -8.28)"/><path class="cls-2" d="M223.16,320.77V322l-28.73,52.84h25.33a2.43,2.43,0,0,0,1.82-.57,4.39,4.39,0,0,0,.81-2.23h1v11.29h-1a4.39,4.39,0,0,0-.81-2.23,2.43,2.43,0,0,0-1.82-.57H186.14v-1.27L215,326.46h-24.9a2.39,2.39,0,0,0-1.82.58,4.39,4.39,0,0,0-.81,2.22h-1V318h1a4.4,4.4,0,0,0,.81,2.24,2.48,2.48,0,0,0,1.82.56Z" transform="translate(-7.36 -8.28)"/><path class="cls-2" d="M253.52,319.72A21.91,21.91,0,0,1,271.36,328a30.62,30.62,0,0,1,5.7,11.25A42.79,42.79,0,0,1,278.62,351a38.05,38.05,0,0,1-3.4,16q-3.75,8.24-10.39,11.87a23.06,23.06,0,0,1-11.25,2.71,21.79,21.79,0,0,1-17.74-8.27,31.82,31.82,0,0,1-5.7-11.25,41.2,41.2,0,0,1-1.56-11.43A39.37,39.37,0,0,1,232,334.25a24.47,24.47,0,0,1,10.42-11.82A23.83,23.83,0,0,1,253.52,319.72Zm0,6a17.46,17.46,0,0,0-14.89,7.53q-5,6.92-5,17.38t5,17.42a18.68,18.68,0,0,0,30,0q5-6.92,5-17.07,0-11-5-17.73a17.68,17.68,0,0,0-6.44-5.64A20,20,0,0,0,253.52,325.71Z" transform="translate(-7.36 -8.28)"/><path class="cls-2" d="M293.54,353.64v21.72a5.86,5.86,0,0,0,.4,2.56,2.73,2.73,0,0,0,1.56,1.2v1.4h-8.73v-1.4a2.75,2.75,0,0,0,1.56-1.18,5.88,5.88,0,0,0,.4-2.58V325.93a6,6,0,0,0-.4-2.6,2.54,2.54,0,0,0-1.56-1.16v-1.4h23a30.59,30.59,0,0,1,7.46.72A11.43,11.43,0,0,1,322,324a13.27,13.27,0,0,1,3.37,5,21.74,21.74,0,0,1,1.47,8.2q0,6.84-3.17,11.15a12,12,0,0,1-8.72,4.94l10.63,23.59q.95,2.19,2.76,2.19v1.4h-9.68v-1.4c1-.23,1.5-.64,1.5-1.22a13.19,13.19,0,0,0-1.07-2.84l-9.51-21.42Zm0-5.69h16.95a25,25,0,0,0,5.22-.41,7.72,7.72,0,0,0,3.11-1.51c2.1-1.76,3.16-4.69,3.16-8.8s-1.09-7.09-3.25-8.85a8,8,0,0,0-3.2-1.53,27.76,27.76,0,0,0-5.47-.39H293.54Z" transform="translate(-7.36 -8.28)"/><path class="cls-2" d="M369.1,320.77V322l-28.73,52.84H365.7a2.45,2.45,0,0,0,1.83-.57,4.59,4.59,0,0,0,.81-2.23h1v11.29h-1a4.59,4.59,0,0,0-.81-2.23,2.45,2.45,0,0,0-1.83-.57H332.09v-1.27l28.84-52.79H336a2.38,2.38,0,0,0-1.82.58,4.39,4.39,0,0,0-.81,2.22h-1V318h1a4.4,4.4,0,0,0,.81,2.24,2.45,2.45,0,0,0,1.82.56Z" transform="translate(-7.36 -8.28)"/><path class="cls-2" d="M405.24,363.75H382.87l-3.68,11.34a9.19,9.19,0,0,0-.52,2.28c0,.87.61,1.46,1.82,1.75v1.4h-9.33v-1.4a3.05,3.05,0,0,0,1.91-1.31,21.12,21.12,0,0,0,1.73-4.38l15.32-47.23a9.59,9.59,0,0,0,.56-2.32c0-.76-.51-1.33-1.51-1.71v-1.4h10.18v1.4c-1,.47-1.5,1.08-1.5,1.84a9.79,9.79,0,0,0,.55,2.19l14.67,45.52a45.73,45.73,0,0,0,2.15,5.91,4.1,4.1,0,0,0,2.27,1.49v1.4h-9.93v-1.4a1.87,1.87,0,0,0,1.78-1.93,10.79,10.79,0,0,0-.67-2.71Zm-1.76-5.69-9.42-29.52-9.41,29.52Z" transform="translate(-7.36 -8.28)"/><path class="cls-2" d="M428.61,374.83h26.72a2.4,2.4,0,0,0,1.82-.57A4.48,4.48,0,0,0,458,372h1v11.29h-1a4.48,4.48,0,0,0-.82-2.23,2.4,2.4,0,0,0-1.82-.57H421.84v-1.4a2.74,2.74,0,0,0,1.58-1.18,6.26,6.26,0,0,0,.38-2.58V325.93a5.88,5.88,0,0,0-.4-2.58,2.74,2.74,0,0,0-1.56-1.18v-1.4h8.73v1.4a2.71,2.71,0,0,0-1.56,1.18,5.88,5.88,0,0,0-.4,2.58Z" transform="translate(-7.36 -8.28)"/><path class="cls-2" d="M99.56,268.06v21.72a5.89,5.89,0,0,0,.4,2.56,2.76,2.76,0,0,0,1.56,1.2v1.4H92.79v-1.4a2.75,2.75,0,0,0,1.56-1.18,5.9,5.9,0,0,0,.4-2.59V240.35a6,6,0,0,0-.4-2.6,2.54,2.54,0,0,0-1.56-1.16v-1.41h22.95a30.51,30.51,0,0,1,7.46.73,11.43,11.43,0,0,1,4.77,2.52,13.16,13.16,0,0,1,3.37,5,21.71,21.71,0,0,1,1.47,8.2q0,6.84-3.17,11.15a12,12,0,0,1-8.72,4.93l10.63,23.6c.64,1.46,1.55,2.19,2.76,2.19v1.4h-9.68v-1.4q1.5-.35,1.5-1.23a13.4,13.4,0,0,0-1.07-2.84l-9.5-21.41Zm0-5.69h17a24.12,24.12,0,0,0,5.22-.42,7.53,7.53,0,0,0,3.11-1.51q3.16-2.62,3.16-8.8t-3.25-8.84a7.84,7.84,0,0,0-3.2-1.53,27.76,27.76,0,0,0-5.47-.39H99.56Z" transform="translate(-7.36 -8.28)"/><path class="cls-2" d="M147.79,267.05v22.2H174.6a2.45,2.45,0,0,0,1.83-.57,4.49,4.49,0,0,0,.81-2.23h1v11.29h-1a4.65,4.65,0,0,0-.84-2.23,2.43,2.43,0,0,0-1.82-.57H141v-1.4a2.74,2.74,0,0,0,1.58-1.18,6.29,6.29,0,0,0,.38-2.59V240.35a5.82,5.82,0,0,0-.4-2.58,2.71,2.71,0,0,0-1.56-1.18v-1.41h33.19a2.35,2.35,0,0,0,1.8-.56,4.62,4.62,0,0,0,.83-2.24h1v11.3h-1a4.47,4.47,0,0,0-.81-2.23,2.43,2.43,0,0,0-1.82-.57H147.79v20.48h17.32a2.43,2.43,0,0,0,1.82-.57,4.39,4.39,0,0,0,.81-2.23h1v11.29h-1a4.43,4.43,0,0,0-.81-2.23,2.43,2.43,0,0,0-1.82-.57Z" transform="translate(-7.36 -8.28)"/><path class="cls-2" d="M193,240.88v20.39H211.1a2.42,2.42,0,0,0,1.82-.56,4.44,4.44,0,0,0,.81-2.24h1v11.3h-1a4.44,4.44,0,0,0-.81-2.24,2.46,2.46,0,0,0-1.82-.56H193v22.8a6.29,6.29,0,0,0,.38,2.59,2.74,2.74,0,0,0,1.58,1.18v1.4h-8.73v-1.4a2.82,2.82,0,0,0,1.56-1.18,6.05,6.05,0,0,0,.4-2.59V240.35a6.14,6.14,0,0,0-.4-2.6,2.6,2.6,0,0,0-1.56-1.16v-1.41h34a2.42,2.42,0,0,0,1.82-.56,4.36,4.36,0,0,0,.81-2.24h1v11.3h-1a4.37,4.37,0,0,0-.81-2.25,2.46,2.46,0,0,0-1.82-.55Z" transform="translate(-7.36 -8.28)"/><path class="cls-2" d="M236.87,240.35v33a53.1,53.1,0,0,0,.43,8.25,9.44,9.44,0,0,0,1.77,4.14q3.28,4.2,12.23,4.2,9.75,0,12.78-4.95a10.53,10.53,0,0,0,1.35-4,61.41,61.41,0,0,0,.33-7.68v-33a6.05,6.05,0,0,0-.39-2.56,2.75,2.75,0,0,0-1.57-1.2v-1.41h8.31v1.41a2.59,2.59,0,0,0-1.57,1.16,6.17,6.17,0,0,0-.39,2.6v34.41a41.31,41.31,0,0,1-.86,9.67,14.24,14.24,0,0,1-6,8.76q-4.4,2.79-12.18,2.8-11.66,0-15.94-6.44a16.4,16.4,0,0,1-2.43-5.88,45.62,45.62,0,0,1-.69-8.91V240.35a6.14,6.14,0,0,0-.4-2.6,2.6,2.6,0,0,0-1.56-1.16v-1.41h8.73v1.41a2.69,2.69,0,0,0-1.56,1.2A5.86,5.86,0,0,0,236.87,240.35Z" transform="translate(-7.36 -8.28)"/><path class="cls-2" d="M324.6,240.92l-4.71,10.68-.79-.79a5.83,5.83,0,0,0,.55-2q0-1.35-3.28-3.83-6.31-4.89-12.92-4.89a16.41,16.41,0,0,0-13,6.17q-6,7-6,18.89,0,11.6,5.76,18.46A16.84,16.84,0,0,0,303.76,290a18.46,18.46,0,0,0,8.29-1.95,18.69,18.69,0,0,0,6.63-5.45v-11h-9.89a2.45,2.45,0,0,0-1.83.57,4.43,4.43,0,0,0-.81,2.23h-1V263.07h1a4.39,4.39,0,0,0,.81,2.23,2.45,2.45,0,0,0,1.83.57h16.45v1.4a2.75,2.75,0,0,0-1.56,1.18,5.9,5.9,0,0,0-.4,2.59v7.75a5.88,5.88,0,0,0,.4,2.58,2.75,2.75,0,0,0,1.56,1.18v1.23a42.15,42.15,0,0,1-6.53,6.87A23.55,23.55,0,0,1,303.55,296a20.65,20.65,0,0,1-16.95-8.1,31,31,0,0,1-5.06-9.54,42.39,42.39,0,0,1-2.11-13.4A37.87,37.87,0,0,1,283.57,247a24.15,24.15,0,0,1,10.29-10.55,21.44,21.44,0,0,1,9.81-2.32,22.69,22.69,0,0,1,8.52,1.58,34.5,34.5,0,0,1,8.45,5.21,4.87,4.87,0,0,0,1.63,1.05c.32,0,.82-.61,1.5-1.84Z" transform="translate(-7.36 -8.28)"/><path class="cls-2" d="M335.14,289.77V240.35a6.14,6.14,0,0,0-.4-2.6,2.6,2.6,0,0,0-1.56-1.16v-1.41h8.73v1.41a2.71,2.71,0,0,0-1.56,1.18,5.82,5.82,0,0,0-.4,2.58v49.42a6.29,6.29,0,0,0,.38,2.59,2.74,2.74,0,0,0,1.58,1.18v1.4h-8.73v-1.4a2.71,2.71,0,0,0,1.57-1.18A6.09,6.09,0,0,0,335.14,289.77Z" transform="translate(-7.36 -8.28)"/><path class="cls-2" d="M375,234.13a21.92,21.92,0,0,1,17.84,8.28,30.62,30.62,0,0,1,5.7,11.25,42.77,42.77,0,0,1,1.56,11.77,38.1,38.1,0,0,1-3.4,16q-3.75,8.23-10.39,11.86A23.06,23.06,0,0,1,375.09,296a21.79,21.79,0,0,1-17.74-8.27,31.87,31.87,0,0,1-5.7-11.26A41.07,41.07,0,0,1,350.09,265a39.37,39.37,0,0,1,3.37-16.37,24.47,24.47,0,0,1,10.42-11.82A24,24,0,0,1,375,234.13Zm0,6a17.46,17.46,0,0,0-14.89,7.53q-5,6.92-5,17.38t5,17.42a18.68,18.68,0,0,0,30,0q5-6.91,5-17.07,0-11-5-17.73a17.72,17.72,0,0,0-6.44-5.65A20.09,20.09,0,0,0,375,240.13Z" transform="translate(-7.36 -8.28)"/><text class="cls-3" transform="translate(0.07 414.29) scale(0.93 1)">ww<tspan class="cls-4" x="64.09" y="0">w</tspan><tspan class="cls-5" x="94.41" y="0">.</tspan><tspan class="cls-6" x="104.48" y="0">r</tspan><tspan x="127.53" y="0">efugiodelzo</tspan><tspan class="cls-7" x="367.44" y="0">r</tspan><tspan x="391.15" y="0">zal.co</tspan></text></svg>