<svg id="Capa_2" data-name="Capa 2" xmlns="http://www.w3.org/2000/svg" viewBox="0 0 183.06 158.35"><defs><style>.cls-1{fill:#cc3;}</style></defs><title>logo</title><path class="cls-1" d="M59.87,68.72l-.44-.7c-.16,0-.27,0-.29,0-.65,1-2,1.1-2.79,1.85-.1.09-.32,0-.49.08l-1.19.17a2.83,2.83,0,0,1-.71,0,2.52,2.52,0,0,0-1.71.19.55.55,0,0,1-.3.07c-1.13-.33-2.23.16-3.35.09a7.83,7.83,0,0,0-2.7.63.4.4,0,0,0-.18.1,10.48,10.48,0,0,0-1.27,1.8c-.47,1.06-.73,2.21-1.15,3.3a7,7,0,0,1-.82,1.42,1.73,1.73,0,0,0-.38,1.14,2.3,2.3,0,0,1-.54,1.72,3.31,3.31,0,0,0-.38,1.11c-.46.52-1,1-1.41,1.59-.75.94-1.29,1-2.1.13s-1.28-1.61-1.9-2.43a.94.94,0,0,1-.11-.38c0-.17,0-.42-.1-.49-.84-.64-1-1.67-1.49-2.49,0-.09-.16-.17-.17-.25-.11-1.33-1.29-2.16-1.57-3.41s-1.13-2.23-1.16-3.57a6.74,6.74,0,0,0-.61-1.84,1.78,1.78,0,0,1-.21-.68A31,31,0,0,0,30,61.7a10.66,10.66,0,0,1,0-1.13c0-.24.07-.54-.05-.71-.43-.67-.19-1.42-.26-2.12s.15-1.67,0-2.46c-.22-1.19.22-2.37-.18-3.59a8.7,8.7,0,0,1,0-2.55c0-1.13,0-2.25,0-3.38,0-.07-.05-.14,0-.21.24-1-.17-1.89-.18-2.84a2.51,2.51,0,0,0-.5-1.84,1,1,0,0,1,0-1.26,2.3,2.3,0,0,0,.14-1.8A15.61,15.61,0,0,1,28.64,36a1.38,1.38,0,0,0,0-.2c-.42-1.26-.85-2.52-1.28-3.78a3.67,3.67,0,0,1-.27-.66,1.73,1.73,0,0,0-.83-1.26,1.31,1.31,0,0,1-.62-1.51,11.28,11.28,0,0,1,3.76.83.6.6,0,0,0,.93-.27.56.56,0,0,0-.33-.91c-1.21-.37-1.76-1.37-2.44-2.27a9.49,9.49,0,0,0-1.87-2.45c-.1-.06-.13-.23-.18-.36-.55-1.61-1.18-3.2-1.61-4.85a14.41,14.41,0,0,1-.3-3.16,1.25,1.25,0,0,1,.51-.81c.38-.29.85-.45,1.25-.72.71-.47,1.38-1,2.09-1.48a9,9,0,0,1,1.41-.81c1.32-.57,2.64-1.13,4-1.62a20.68,20.68,0,0,1,2.1-.49c1-.24,2-.54,3-.7a4.84,4.84,0,0,1,2,0A11.18,11.18,0,0,0,43,8.64a3.07,3.07,0,0,1,.91.12,2.26,2.26,0,0,0,1.6.2c.15-.06.41.16.63.22.63.19,1.18.7,1.95.39.22-.09.58.09.87.2.86.33,1.71.68,2.56,1a5.68,5.68,0,0,1,.55.28c.71.38,1.24,1.1,2.15,1.13.11,0,.21.23.32.36s.2.3.34.35a5,5,0,0,1,2.57,1.74,1.5,1.5,0,0,0,.52.31c.15.08.36.11.46.23.77,1.05,2,1.63,2.72,2.72.51.76,1.06,1.51,1.62,2.25a1.82,1.82,0,0,0,.63.66,2,2,0,0,1,1.09,1.3,3.7,3.7,0,0,0,1,1.51A8.53,8.53,0,0,1,66.83,26c.57,1,1.06,2.15,1.58,3.23a4.93,4.93,0,0,1,.23.46c.29.85.28.85.9,1.32a2.5,2.5,0,0,0,.61,2.17c.15.14.14.45.2.68a2.58,2.58,0,0,0,.25.77A4.84,4.84,0,0,1,71.08,36c.42,1.1.56,2.35,1.6,3.15.22.17.23.6.36,1a1.81,1.81,0,0,1,1,1.38,9,9,0,0,0,1.45,2.56c.24.38.55.7.8,1.07s.48.91,1.06,1.07c.16,0,.28.28.38.46a7.66,7.66,0,0,0,1.78,2.11c.71.57,1.29,1.29,1.95,1.93a6.91,6.91,0,0,0,2.25,1.77.83.83,0,0,1,.31.28,3,3,0,0,0,1.88,1.31,1.53,1.53,0,0,1,.85,1,1.4,1.4,0,0,0,1.07,1,2.85,2.85,0,0,1,1.77,1.15,2.16,2.16,0,0,0,.83.61A1.73,1.73,0,0,1,91.56,59c.92-.16,1.44.4,2,.94s.88.85,1.33,1.27c.07.07.19.15.26.13.77-.23.93.46,1.36.81a11,11,0,0,0,2.71,2.1A12.9,12.9,0,0,1,102,66.22c.5.37.48.4,1.27.33a1.42,1.42,0,0,0,1.12,1.13,1.09,1.09,0,0,1,.45.36c.11.12.16.31.28.42l3.38,3.17c.93.86,1.84,1.74,2.75,2.62.08.07.14.16.22.22,1.17.74,1.76,2,2.57,3a11.53,11.53,0,0,0,1.65,1.7,1.28,1.28,0,0,1,.49,1,1.73,1.73,0,0,0,.42,1,15.17,15.17,0,0,1,2.32,3.08,13.68,13.68,0,0,0,3,3.87c.14.1.33.21.37.35a14.69,14.69,0,0,0,1.76,2.89c.12.21.19.51.36.61,1.33.76,1.66,2.24,2.5,3.35.37.48.83.89,1.23,1.35a5.77,5.77,0,0,1,.79,1,7.17,7.17,0,0,0,2,2.74c.41.31.6.9.92,1.35.47.67,1,1.33,1.46,2,.64.85,1.3,1.69,1.92,2.55q1.47,2,2.92,4.1c1.06,1.51,2.12,3,3.2,4.54.38.52.82,1,1.23,1.48l.21-.1c-.22-.72-.43-1.43-.65-2.16.49-.33.74,0,1,.25.64.67,1.26,1.36,1.92,2a7.62,7.62,0,0,0,3.53,2.06,1.32,1.32,0,0,1,.4.11c.83.58,1.73,1.05,2.62,1.55a17.23,17.23,0,0,1,2.23,1.8c.11.09.22.21.35.22,1.43.17,2.18,1.35,3.19,2.15.13.11.26.29.4.3,1.33.1,2,1.22,3.06,1.82.35.21.71.39,1.07.57a3.35,3.35,0,0,1,.47.21c.69.55,1.36,1.12,2,1.68.11.08.19.23.31.27,1.24.43,2,1.49,3.07,2.2.11.07.22.2.34.23,1.09.21,1.66,1.17,2.52,1.72s1.7,1.28,2.55,1.91,1.48,1.1,2.23,1.64c.28.2.57.39.86.57.14.09.35.12.45.24a10.8,10.8,0,0,0,2.95,2.52,8.07,8.07,0,0,1,.92.6,9.37,9.37,0,0,1,1,.87c1.2,1.23,2.29,2.58,3.59,3.69a5.15,5.15,0,0,1,1.67,3.2c.08.4.24.79.35,1.18a1.79,1.79,0,0,1-.32,1.79,8.64,8.64,0,0,1-2.7-.92,11.18,11.18,0,0,0-2.07-.9,7.81,7.81,0,0,1-2.91-2.06c-.12-.11-.18-.34-.31-.37-1.78-.46-2.81-1.91-4.09-3-1.44-1.28-2.81-2.63-4.3-3.85a15.29,15.29,0,0,1-2.59-2.17,3.45,3.45,0,0,0-1-.67c-.2-.12-.51-.18-.62-.36-.62-1-1.77-1.25-2.7-1.8l-2.23-1.3c-.58-.36-1.41-.33-1.76-1.06-.85.12-1.4-.49-2-.84s-1.19-.76-1.89-1.22c-.49.43-1.08.17-1.69-.2s-1.12-.53-1.66-.82a5,5,0,0,1-.66-.47l-.79-.58-.21.13.32.9c.59,1.61,1.22,3.21,1.75,4.85a1.89,1.89,0,0,1-1.86,2.54,6.87,6.87,0,0,1-3.34-.84c-.76-.38-1.62-.57-2.37-1a33.23,33.23,0,0,1-3.74-2.19c-.84-.6-1.81-1-2.65-1.53-.17-.12-.39-.15-.55-.28-.87-.65-1.75-1.31-2.6-2a8.9,8.9,0,0,0-1.89-1.23,8.49,8.49,0,0,1-2-1.4,39.34,39.34,0,0,0-4.55-3.37c-.71-.47-1.29-1.13-2-1.66-1.1-.86-2.22-1.7-3.35-2.53s-2.13-1.51-3.18-2.28c-.47-.34-.91-.72-1.36-1.09a1.94,1.94,0,0,0-.31-.26c-1.52-.72-2.63-2-4-2.88-1.15-.73-2.22-1.6-3.41-2.27-.38-.22-.7-.55-1.07-.8s-.87-.55-1.31-.81c-.14-.09-.38-.09-.46-.21-.57-.86-1.65-1-2.35-1.62a4.58,4.58,0,0,0-1.06-.61c-1.23-.61-2.47-1.18-3.67-1.83-1.48-.8-3-1.62-4.37-2.53s-2.51-1.79-3.77-2.69q-1.45-1-2.94-2.07c-.16-.1-.41-.08-.58-.17s-.56-.24-.66-.45a6.44,6.44,0,0,0-2.26-2.26c-.93-.7-1.71-1.6-2.61-2.34S80.73,91,79.89,90.34a3.9,3.9,0,0,1-.87-.85A9.13,9.13,0,0,0,76.61,87a24,24,0,0,1-1.88-1.89c-.68-.62-1.33-1.26-2-1.94-.25-.28-.76-.32-1.23-.5l-.06-1a1.37,1.37,0,0,1-1.44-1.17,4.19,4.19,0,0,0-1.61-2c-.16-.13-.4-.22-.47-.38-.5-1.2-1.57-1.89-2.38-2.8s-1.52-2-2.27-3c0-.06,0-.17-.07-.19-1.18-.59-1.29-1.92-2-2.81C61,69,60.45,69,59.87,68.72ZM30.78,29.47c.72.48.72.48,1.13-.06Zm5.95.87a.7.7,0,0,0-.06-.19l-.15,0a1,1,0,0,0,.06.18S36.68,30.35,36.73,30.34Z" transform="translate(-4.26 -8.39)"/><path class="cls-1" d="M43.6,157.43a2.4,2.4,0,0,1,2.31,0,64.11,64.11,0,0,0,6.5,2c1.47.34,2.92.8,4.37,1.2.4.11.78.24,1.16-.12s.67-.09.93.14a.91.91,0,0,0,1.22.06c.06,0,.13,0,.19-.09a6.88,6.88,0,0,1,4.84-.91,11.34,11.34,0,0,0,3.94-.35,4.72,4.72,0,0,0,2.59-1.37,6.82,6.82,0,0,0,2-3.71,7.72,7.72,0,0,1,1.42-3.71,2,2,0,0,0,.21-.57c.3-.91.57-1.84.91-2.73a3.82,3.82,0,0,1,.64-.84c-.41-.34-.73-.1-1,.19a14.5,14.5,0,0,1-5,3.62,23.75,23.75,0,0,1-4,1.84,11.32,11.32,0,0,1-4,.9,6.29,6.29,0,0,0-1.52.26l-2.32.48a3,3,0,0,1-.52,0c-1.34-.07-2.69-.07-4-.25a31.18,31.18,0,0,1-3.4-.83c-1.07-1.1-2.72-1.54-3.45-3-.09-.2-.33-.34-.47-.53s-.38-.45-.35-.64c.07-.4.44-.51.81-.46a15.9,15.9,0,0,1,1.83.32c1.63.4,3.26.84,4.89,1.26l2.19.55a11.37,11.37,0,0,0,4.82.15c1.51-.24,3-.62,4.49-1a2.71,2.71,0,0,0,.7-.42c.24-.13.51-.39.72-.35.85.16,1.38-.43,2-.75a7.06,7.06,0,0,1,1.22-.56c1.55-.43,2.58-1.65,3.85-2.51.14-.09.22-.27.36-.36a7.47,7.47,0,0,0,2.83-3.43,1.29,1.29,0,0,1,.22-.35s.11-.06.24-.12a1.17,1.17,0,0,1,.47,1.4c-.15.57-.37,1.12-.53,1.68a3.64,3.64,0,0,0-.11.66l.19.11a19.91,19.91,0,0,0,1.39-1.82A3.37,3.37,0,0,1,81,141a2.9,2.9,0,0,0,.86-.56c.71-.73,1.4-1.49,2.09-2.24,0-.06.12-.1.14-.16a9.91,9.91,0,0,1,1.66-2.3,3.81,3.81,0,0,0,.45-1.25,11.35,11.35,0,0,0,.45-3.23,5.78,5.78,0,0,1,0-.93,1.59,1.59,0,0,1,2-1.68c.59,0,1.25-.17,1.79.29a.56.56,0,0,0,.39.06,8.92,8.92,0,0,1,3.37.31c1.64.29,2.12,1.31,2,2.83a7.72,7.72,0,0,1-2,4.64c-.2.24-.36.51-.56.74a9.1,9.1,0,0,1-1.07,1.08c-.73.56-1.5,1.08-2.28,1.58a6.29,6.29,0,0,1-1.11.53A4.71,4.71,0,0,0,86.62,143c-.34.69-.3.91.23,1.47a4.28,4.28,0,0,0,.84.76,3.85,3.85,0,0,1,1.89,3.65c0,.27,0,.55,0,.82a2.19,2.19,0,0,1-1.6,2.56c-.28.12-.56.26-.86.36a3.83,3.83,0,0,1-5-2,11.48,11.48,0,0,1-.62-1.85c0-.13-.09-.25-.19-.51a5.58,5.58,0,0,0-1,.77c-1.08,1.37-2.15,2.76-3.17,4.19-.57.81-1,1.69-1.54,2.55a3.42,3.42,0,0,0-.39,2.3,1.37,1.37,0,0,0,.63,1,1,1,0,0,0,1,.16c.2-.08.47,0,.71,0a15.41,15.41,0,0,1,2.14-.1c1.07.11,2.1-.13,3.14-.12a16.42,16.42,0,0,1,3.24.51A11.45,11.45,0,0,1,90.91,162c.67.54.51,1.12-.22,1.61s-1.86.36-2.8.44l-1.42.11c-.06,0-.13,0-.2,0L82,164.13c-.1,0-.23-.08-.3,0-1.21.63-2.62.22-3.88.87a12.87,12.87,0,0,1-3.38.83c-1,.2-2.1.32-3.15.49-.8.14-1.65-.07-2.4.42-.12.07-.33,0-.51,0l-1.73,0-.31,0-4.22-.14a3.25,3.25,0,0,0-1.72.1c-.22.1-.54,0-.82,0a5.35,5.35,0,0,0-1.13,0,11.5,11.5,0,0,1-5.07-.71,10.18,10.18,0,0,0-4.17-.51,2.45,2.45,0,0,1-2.33-1.81c-.15-.92-.25-1.84-.33-2.76a2.5,2.5,0,0,0-1.33-2.18A12,12,0,0,1,43.6,157.43Z" transform="translate(-4.26 -8.39)"/><path class="cls-1" d="M4.86,16.23c1.47-.64,2.79-.46,4-.91a8.17,8.17,0,0,1,2.76-.1c.61,0,1.23.08,1.85.13a23.15,23.15,0,0,1,3.65.35c1,.24,1.95.39,2.93.53.82.11,1.13.76,1.42,1.37a4.52,4.52,0,0,1,.3,3.77c0,.07-.07.15,0,.2.48.92-.26,1.69-.34,2.55a2.7,2.7,0,0,1-1.74,2.27,1.59,1.59,0,0,1-1.08.09A34.53,34.53,0,0,0,15,25.79a10.21,10.21,0,0,1-4.91-2,1.31,1.31,0,0,0-.55-.28,4.81,4.81,0,0,1-2.33-1.24,13.49,13.49,0,0,0-1.42-1,2,2,0,0,1-1.06-1.78,1.46,1.46,0,0,0-.1-.7A2.11,2.11,0,0,1,4.86,16.23Z" transform="translate(-4.26 -8.39)"/><path class="cls-1" d="M30.78,29.47l1.13-.06C31.5,30,31.5,30,30.78,29.47Z" transform="translate(-4.26 -8.39)"/><path class="cls-1" d="M36.73,30.34s-.14.05-.15,0a1,1,0,0,1-.06-.18l.15,0A.7.7,0,0,1,36.73,30.34Z" transform="translate(-4.26 -8.39)"/></svg>